<svg width="1154" height="434" viewBox="0 0 1154 434" fill="none" xmlns="http://www.w3.org/2000/svg">
<path d="M515.467 120.312C513.323 92.7284 502.607 67.3511 487.604 46.3873C462.956 17.6999 429.734 -1.05717 386.868 0.0461884C375.08 0.0461884 364.363 1.14955 353.647 4.45963C330.07 12.1831 309.709 27.6302 294.705 47.4907C279.702 67.3511 270.057 92.7284 267.914 120.312C267.914 123.622 267.914 128.036 267.914 131.346C267.914 135.759 267.914 141.276 268.986 145.69H491.89C489.747 164.447 483.317 180.997 473.672 196.444C472.6 197.548 472.6 198.651 471.529 199.754C470.457 200.858 470.457 201.961 469.385 203.064C467.242 205.271 465.099 208.581 462.956 210.788C460.812 212.995 459.741 214.098 457.597 216.305C456.526 216.305 456.526 217.408 455.454 218.511C437.236 235.062 413.659 242.785 386.868 242.785C351.503 242.785 319.354 226.235 300.064 197.548L286.132 206.374L277.559 211.891C302.207 248.302 341.858 268.163 385.796 268.163C386.868 268.163 387.94 268.163 387.94 268.163C414.731 268.163 439.379 259.336 459.741 246.095C459.741 246.095 459.741 246.095 460.812 246.095C490.819 225.132 511.18 189.824 515.467 150.103C515.467 145.69 516.538 140.173 516.538 135.759C516.538 128.036 516.538 124.726 515.467 120.312ZM291.49 120.312C292.562 114.796 292.562 109.279 294.705 104.865C306.494 56.3175 340.787 28.7335 383.653 25.4235C384.725 25.4235 386.868 25.4235 387.94 25.4235H389.011C390.083 25.4235 390.083 25.4235 391.155 25.4235C442.594 25.4235 484.389 67.3511 490.819 121.416H291.49V120.312Z" fill="white"/>
<path d="M0 131.346C0 135.759 2.39534e-07 141.276 1.07166 145.69C5.35828 185.411 25.7198 220.718 55.7261 241.682C55.7261 241.682 55.7261 241.682 56.7978 241.682C77.1593 254.922 101.807 263.749 128.599 263.749C129.67 263.749 130.742 263.749 130.742 263.749C175.752 263.749 214.331 244.992 238.979 207.478L230.406 201.961L216.475 193.134C197.185 221.822 166.107 238.372 129.67 238.372C103.951 238.372 80.3742 230.648 61.0844 214.098C60.0128 214.098 60.0128 212.995 58.9411 211.891C56.7978 209.685 55.7261 208.581 53.5828 206.375C51.4395 204.168 49.2962 200.858 47.1529 198.651C47.1529 200.858 46.0812 199.754 46.0812 198.651C45.0096 197.548 45.0096 196.444 43.9379 195.341C34.293 180.997 27.8631 163.344 25.7198 144.586H248.624C248.624 140.173 249.696 134.656 249.696 130.243C249.696 126.933 249.696 122.519 249.696 119.209C247.553 92.7284 236.836 68.4545 221.833 48.594C206.83 27.6302 186.468 12.1832 162.892 4.45963C152.175 2.25291 141.459 0.0461884 129.67 0.0461884C86.8042 -1.05717 52.5112 17.7 28.9347 46.3873C12.8599 67.3512 2.14331 92.7284 0 120.312C0 124.726 0 128.036 0 131.346ZM25.7198 120.312C31.078 66.2478 73.9443 24.3201 125.384 24.3201C126.455 24.3201 126.455 24.3201 127.527 24.3201H128.599C129.67 24.3201 131.814 24.3201 132.885 24.3201C175.752 27.6302 210.045 55.2142 221.833 103.762C222.905 109.279 223.976 113.692 225.048 119.209H25.7198V120.312Z" fill="white"/>
<path d="M1024.49 0.0466309C953.76 0.0466309 895.891 59.6281 895.891 133.553C895.891 207.478 953.76 267.06 1024.49 267.06C1095.22 267.06 1153.09 207.478 1153.09 133.553C1153.09 59.6281 1096.29 0.0466309 1024.49 0.0466309ZM1024.49 240.579C967.692 240.579 920.539 192.031 920.539 132.45C920.539 72.8684 966.62 24.3206 1024.49 24.3206C1081.29 24.3206 1128.44 72.8684 1128.44 132.45C1128.44 192.031 1082.36 240.579 1024.49 240.579Z" fill="white"/>
<path d="M530.453 5.55355H555.101V49.688C570.104 23.2073 589.394 0.0367432 631.188 0.0367432C671.911 0.0367432 696.559 16.5872 711.563 51.8947C726.566 23.2073 749.071 0.0367432 793.008 0.0367432C847.663 0.0367432 884.099 34.2409 883.028 108.166V259.326H858.38L857.308 109.269C857.308 54.1014 832.66 24.3107 789.794 24.3107C751.214 24.3107 717.992 52.998 717.992 109.269V259.326H693.344V109.269C693.344 55.2048 676.198 25.414 626.902 25.414C586.179 25.414 554.029 64.0317 554.029 115.89V260.43H529.381V5.55355H530.453Z" fill="white"/>
<path d="M207 381.692C207 372.974 208.919 365.128 213.716 359.897C218.513 354.667 224.27 352.051 231.945 352.051C239.621 352.051 245.377 354.667 250.174 359.897L251.134 353.795H260.728V410.462C260.728 418.308 257.85 423.538 253.052 427.897C248.255 432.256 241.539 434 233.864 434C229.067 434 225.229 433.128 220.432 431.385C215.635 429.641 212.757 427.026 210.838 424.41L216.594 418.308C221.391 423.538 227.148 426.154 233.864 426.154C239.621 426.154 243.458 424.41 246.337 421.795C249.215 419.179 251.134 415.692 251.134 410.462V405.231C246.337 409.59 240.58 412.205 232.905 412.205C225.229 412.205 219.473 409.59 214.675 404.359C208.919 398.256 207 391.282 207 381.692ZM217.554 382.564C217.554 388.667 219.473 393.897 222.351 398.256C225.229 401.744 229.067 403.487 234.823 403.487C241.539 403.487 246.337 400.872 250.174 394.769V368.615C247.296 363.385 241.539 359.897 234.823 359.897C229.067 359.897 225.229 361.641 222.351 365.128C219.473 370.359 217.554 375.59 217.554 382.564ZM303.902 412.205C295.267 412.205 288.551 409.59 282.795 404.359C277.038 399.128 275.119 392.154 275.119 383.436V381.692C275.119 375.59 276.079 371.231 278.957 366C281.835 361.641 284.714 358.154 289.511 355.538C294.308 352.923 298.146 352.051 303.902 352.051C312.537 352.051 318.294 354.667 323.091 359.897C327.888 365.128 329.807 372.103 329.807 380.821V385.18H286.632C286.632 391.282 288.551 395.641 292.389 399.128C296.227 402.615 300.064 404.359 305.821 404.359C309.659 404.359 312.537 403.487 315.415 402.615C318.294 400.872 320.212 399.128 322.131 396.513L328.847 400.872C322.131 408.718 314.456 412.205 303.902 412.205ZM301.983 359.897C297.186 359.897 294.308 361.641 290.47 364.256C287.592 366.872 285.673 371.231 284.714 376.462H316.375V375.59C316.375 370.359 314.456 366.872 311.578 364.256C310.618 361.641 306.78 359.897 301.983 359.897ZM355.711 338.974V352.923H367.224V360.769H355.711V396.513C355.711 399.128 356.671 400.872 357.63 401.744C358.589 402.615 360.508 403.487 363.387 403.487C364.346 403.487 366.265 403.487 368.184 402.615V410.462C365.305 411.333 362.427 411.333 359.549 411.333C354.752 411.333 350.914 409.59 348.995 406.974C346.117 404.359 345.158 400.872 345.158 395.641V359.897H333.644V352.051H345.158V338.103H355.711V338.974ZM420.952 352.923V359.026C425.749 353.795 431.506 351.179 440.141 351.179C448.776 351.179 455.492 354.667 458.37 360.769C460.289 358.154 463.167 355.538 467.005 353.795C470.842 352.051 474.68 351.179 479.477 351.179C493.869 351.179 500.585 358.154 500.585 371.231V409.59H489.072V372.974C489.072 368.615 488.112 366 486.193 363.385C484.274 361.641 480.437 359.897 475.64 359.897C471.802 359.897 467.964 360.769 466.045 363.385C463.167 365.128 462.208 368.615 461.248 372.103V410.462H450.695V372.974C450.695 364.256 445.897 360.769 437.263 360.769C430.547 360.769 424.79 363.385 422.871 369.487V411.333H412.317V353.795H420.952V352.923ZM513.057 381.692C513.057 376.462 514.017 371.231 516.895 366C519.773 361.641 522.652 358.154 527.449 355.538C532.246 352.923 537.043 352.051 542.8 352.051C551.434 352.051 558.15 354.667 563.907 359.897C569.663 365.128 571.582 372.974 571.582 381.692V382.564C571.582 387.795 570.623 393.026 567.745 397.385C565.826 401.744 561.988 405.231 557.191 407.846C552.394 410.462 547.597 411.333 541.84 411.333C533.205 411.333 526.489 408.718 520.733 403.487C515.936 398.256 513.057 391.282 513.057 381.692ZM523.611 382.564C523.611 388.667 525.53 393.897 528.408 398.256C531.286 401.744 536.084 404.359 541.84 404.359C547.597 404.359 551.434 402.615 555.272 398.256C558.15 393.897 560.069 388.667 560.069 381.692C560.069 375.59 558.15 370.359 555.272 366C552.394 361.641 547.597 359.897 541.84 359.897C536.084 359.897 532.246 361.641 528.408 366C525.53 370.359 523.611 375.59 523.611 382.564ZM615.716 362.513C613.797 362.513 611.878 362.513 609.959 362.513C603.243 362.513 598.446 365.128 595.568 371.231V412.205H585.014V354.667H595.568V361.641C599.406 356.41 604.203 353.795 610.919 353.795C612.838 353.795 614.757 353.795 615.716 354.667V362.513ZM651.215 412.205C642.58 412.205 635.864 409.59 630.107 404.359C624.351 399.128 622.432 392.154 622.432 383.436V381.692C622.432 375.59 623.391 371.231 626.27 366C629.148 361.641 632.026 358.154 636.823 355.538C641.621 352.923 645.458 352.051 651.215 352.051C659.85 352.051 665.606 354.667 670.403 359.897C675.201 365.128 677.119 372.103 677.119 380.821V385.18H633.945C633.945 391.282 635.864 395.641 639.702 399.128C643.539 402.615 647.377 404.359 653.134 404.359C656.971 404.359 659.85 403.487 662.728 402.615C665.606 400.872 667.525 399.128 669.444 396.513L676.16 400.872C669.444 408.718 661.769 412.205 651.215 412.205ZM649.296 359.897C644.499 359.897 641.621 361.641 637.783 364.256C634.905 366.872 632.986 371.231 632.026 376.462H663.687V375.59C663.687 370.359 661.768 366.872 658.89 364.256C657.931 361.641 654.093 359.897 649.296 359.897ZM739.482 397.385L754.833 352.923H766.346L743.32 410.462H734.685L711.659 352.923H723.172L739.482 397.385ZM788.413 411.333H777.859V353.795H788.413V411.333ZM776.9 338.103C776.9 336.359 777.859 335.487 778.819 333.744C779.778 332.872 781.697 332 783.616 332C785.535 332 787.453 332.872 788.413 333.744C789.372 334.615 790.332 336.359 790.332 338.103C790.332 339.846 789.372 340.718 788.413 342.462C787.453 343.333 785.535 344.205 783.616 344.205C781.697 344.205 779.778 343.333 778.819 342.462C776.9 340.718 776.9 339.846 776.9 338.103ZM832.547 412.205C823.912 412.205 817.196 409.59 811.439 404.359C805.683 399.128 803.764 392.154 803.764 383.436V381.692C803.764 375.59 804.723 371.231 807.601 366C810.48 361.641 813.358 358.154 818.155 355.538C822.952 352.923 826.79 352.051 832.547 352.051C841.181 352.051 846.938 354.667 851.735 359.897C856.532 365.128 858.451 372.103 858.451 380.821V385.18H815.277C815.277 391.282 817.196 395.641 821.033 399.128C824.871 402.615 828.709 404.359 834.465 404.359C838.303 404.359 841.181 403.487 844.06 402.615C846.938 401.744 848.857 399.128 850.776 396.513L857.492 400.872C850.776 408.718 843.1 412.205 832.547 412.205ZM830.628 359.897C825.831 359.897 822.952 361.641 819.115 364.256C816.236 366.872 814.317 371.231 813.358 376.462H845.019V375.59C845.019 370.359 843.1 366.872 840.222 364.256C839.263 361.641 835.425 359.897 830.628 359.897ZM925.611 397.385L938.084 352.923H949.597L930.408 411.333H921.773L906.422 367.744L891.072 411.333H882.437L864.208 353.795H874.761L887.234 397.385L901.625 353.795H911.22L925.611 397.385ZM997.568 395.641C997.568 393.026 996.609 391.282 994.69 389.538C992.771 387.795 988.933 386.923 983.177 386.051C977.42 385.179 973.582 383.436 969.745 382.564C966.866 380.821 963.988 379.077 963.029 377.333C961.11 375.59 961.11 372.974 961.11 370.359C961.11 366 963.029 361.641 967.826 358.154C972.623 354.667 978.379 352.923 985.095 352.923C992.771 352.923 998.527 354.667 1002.37 358.154C1007.16 361.641 1009.08 366 1009.08 371.231H998.527C998.527 368.615 997.568 366 994.69 364.256C991.811 362.513 988.933 361.641 985.095 361.641C981.258 361.641 978.38 362.513 975.501 364.256C973.582 366 972.623 367.744 972.623 370.359C972.623 372.974 973.582 374.718 975.501 375.59C977.42 376.462 981.258 378.205 987.014 379.077C992.771 379.949 996.609 381.692 1000.45 383.436C1004.28 385.179 1006.2 386.923 1008.12 388.667C1010.04 390.41 1011 393.026 1011 396.513C1011 401.744 1009.08 406.103 1004.28 408.718C999.487 412.205 993.73 413.077 987.014 413.077C982.217 413.077 977.42 412.205 973.582 410.462C969.745 408.718 966.866 406.974 963.988 403.487C962.069 400.872 961.11 397.385 961.11 393.897H968.785C968.785 397.385 970.704 400 973.582 401.744C976.461 403.487 980.298 404.359 984.136 404.359C987.974 404.359 991.811 403.487 993.73 401.744C995.649 400 997.568 398.256 997.568 395.641Z" fill="white"/>
</svg>
